<svg xmlns="http://www.w3.org/2000/svg" xmlns:xlink="http://www.w3.org/1999/xlink" width="64" zoomAndPan="magnify" viewBox="0 0 48 48" height="64" preserveAspectRatio="xMidYMid meet" version="1.0"><defs><clipPath id="b289f311a9"><path d="M 9.097656 16.425781 L 22.554688 16.425781 L 22.554688 32.285156 L 9.097656 32.285156 Z M 9.097656 16.425781 " clip-rule="nonzero"/></clipPath><clipPath id="d35324bb47"><path d="M 20.09375 32.246094 C 19.367188 32.246094 18.640625 32.238281 17.914062 32.25 C 17.730469 32.253906 17.625 32.191406 17.519531 32.042969 L 12.304688 24.609375 C 11.269531 23.140625 10.234375 21.675781 9.195312 20.210938 C 9.117188 20.101562 9.101562 20.019531 9.1875 19.898438 L 11.460938 16.632812 C 11.59375 16.441406 11.59375 16.441406 11.730469 16.636719 L 17.929688 25.578125 C 19.292969 27.542969 20.65625 29.503906 22.015625 31.46875 L 22.421875 32.054688 C 22.453125 32.105469 22.527344 32.152344 22.5 32.214844 C 22.46875 32.28125 22.386719 32.242188 22.328125 32.242188 L 20.09375 32.246094 " clip-rule="nonzero"/></clipPath><clipPath id="2708c7647d"><path d="M 20.035156 17.289062 L 24.882812 17.289062 L 24.882812 32.25 L 20.035156 32.25 Z M 20.035156 17.289062 " clip-rule="nonzero"/></clipPath><clipPath id="a342a46a1e"><path d="M 24.785156 32.242188 C 24.476562 31.808594 24.183594 31.398438 23.894531 30.984375 L 20.222656 25.765625 C 20.105469 25.601562 20.054688 25.433594 20.054688 25.230469 L 20.058594 17.554688 C 20.058594 17.300781 20.0625 17.296875 20.324219 17.296875 L 24.171875 17.296875 C 24.339844 17.296875 24.511719 17.304688 24.679688 17.304688 C 24.785156 17.300781 24.828125 17.34375 24.824219 17.449219 L 24.824219 17.878906 C 24.824219 22.582031 24.824219 27.285156 24.824219 31.992188 C 24.824219 32.0625 24.847656 32.140625 24.785156 32.242188 " clip-rule="nonzero"/></clipPath><clipPath id="0c3be38426"><path d="M 0.488281 20.371094 L 11.277344 20.371094 L 11.277344 32.25 L 0.488281 32.25 Z M 0.488281 20.371094 " clip-rule="nonzero"/></clipPath><clipPath id="ad939f78b2"><path d="M 0.488281 32.226562 C 0.597656 32.070312 0.6875 31.933594 0.785156 31.796875 L 8.554688 20.816406 C 8.628906 20.714844 8.703125 20.613281 8.769531 20.507812 C 8.839844 20.394531 8.890625 20.398438 8.96875 20.507812 L 10.035156 22.027344 C 10.421875 22.574219 10.800781 23.125 11.191406 23.667969 C 11.269531 23.777344 11.269531 23.855469 11.1875 23.964844 L 5.738281 31.507812 C 5.589844 31.714844 5.4375 31.925781 5.292969 32.132812 C 5.234375 32.214844 5.167969 32.246094 5.070312 32.246094 L 0.605469 32.246094 C 0.574219 32.246094 0.546875 32.238281 0.488281 32.226562 " clip-rule="nonzero"/></clipPath><clipPath id="6e31105a95"><path d="M 26.613281 22.289062 L 31.386719 22.289062 L 31.386719 32.699219 L 26.613281 32.699219 Z M 26.613281 22.289062 " clip-rule="nonzero"/></clipPath><clipPath id="cb12d89c0c"><path d="M 26.617188 27.492188 L 26.613281 24.605469 C 26.613281 24.460938 26.652344 24.359375 26.753906 24.257812 L 28.570312 22.464844 C 28.664062 22.367188 28.761719 22.320312 28.898438 22.324219 L 31.132812 22.320312 C 31.304688 22.320312 31.378906 22.359375 31.375 22.550781 C 31.363281 23.117188 31.367188 23.6875 31.375 24.257812 C 31.375 24.414062 31.320312 24.464844 31.167969 24.460938 L 30.285156 24.457031 C 30.144531 24.453125 30.085938 24.492188 30.085938 24.644531 L 30.085938 30.351562 C 30.085938 30.5 30.136719 30.550781 30.28125 30.546875 L 31.164062 30.542969 C 31.3125 30.539062 31.375 30.578125 31.375 30.742188 L 31.375 32.484375 C 31.375 32.644531 31.320312 32.691406 31.167969 32.6875 L 28.859375 32.683594 C 28.757812 32.6875 28.679688 32.652344 28.609375 32.582031 L 26.734375 30.738281 C 26.648438 30.652344 26.613281 30.5625 26.613281 30.441406 L 26.617188 27.496094 " clip-rule="nonzero"/></clipPath><clipPath id="19db41fde7"><path d="M 7.632812 26.800781 L 15.410156 26.800781 L 15.410156 32.285156 L 7.632812 32.285156 Z M 7.632812 26.800781 " clip-rule="nonzero"/></clipPath><clipPath id="f8bbbe324b"><path d="M 11.503906 32.234375 L 7.839844 32.234375 C 7.785156 32.234375 7.703125 32.265625 7.675781 32.195312 C 7.652344 32.140625 7.710938 32.09375 7.746094 32.046875 L 11.035156 27.484375 C 11.160156 27.308594 11.289062 27.140625 11.40625 26.964844 C 11.492188 26.828125 11.546875 26.851562 11.628906 26.96875 L 13.316406 29.3125 C 13.972656 30.21875 14.625 31.128906 15.277344 32.039062 C 15.3125 32.085938 15.382812 32.132812 15.351562 32.195312 C 15.320312 32.261719 15.238281 32.230469 15.179688 32.230469 L 11.503906 32.234375 " clip-rule="nonzero"/></clipPath><clipPath id="71543fd371"><path d="M 20.410156 12.554688 L 24.507812 12.554688 L 24.507812 16.613281 L 20.410156 16.613281 Z M 20.410156 12.554688 " clip-rule="nonzero"/></clipPath><clipPath id="b4f83996b1"><path d="M 21.160156 13.472656 C 21.46875 13.511719 21.46875 13.511719 21.660156 13.066406 C 21.460938 13.167969 21.308594 13.292969 21.160156 13.472656 M 23.257812 13.085938 C 23.464844 13.539062 23.480469 13.550781 23.734375 13.453125 C 23.613281 13.300781 23.46875 13.183594 23.257812 13.085938 M 23.753906 15.710938 C 23.445312 15.652344 23.425781 15.667969 23.265625 16.117188 C 23.464844 16 23.625 15.886719 23.753906 15.710938 M 21.148438 15.710938 C 21.289062 15.875 21.4375 16.015625 21.636719 16.082031 C 21.523438 15.902344 21.535156 15.570312 21.148438 15.710938 M 22.597656 13.183594 C 22.636719 13.285156 22.527344 13.445312 22.695312 13.484375 C 22.820312 13.511719 23.003906 13.554688 23.078125 13.453125 C 23.140625 13.375 22.996094 13.253906 22.929688 13.15625 L 22.871094 13.085938 C 22.804688 13.023438 22.738281 12.914062 22.648438 12.949219 C 22.554688 12.980469 22.625 13.101562 22.597656 13.183594 M 22.308594 13.214844 C 22.308594 13.160156 22.308594 13.125 22.304688 13.085938 C 22.300781 13.035156 22.332031 12.960938 22.269531 12.9375 C 22.214844 12.914062 22.167969 12.96875 22.125 13.003906 C 22 13.101562 21.90625 13.226562 21.839844 13.363281 C 21.820312 13.402344 21.773438 13.472656 21.851562 13.484375 C 21.988281 13.503906 22.136719 13.53125 22.257812 13.472656 C 22.359375 13.425781 22.289062 13.292969 22.308594 13.214844 M 22.605469 15.992188 L 22.601562 15.992188 L 22.605469 16.121094 C 22.609375 16.171875 22.582031 16.230469 22.636719 16.257812 C 22.6875 16.285156 22.726562 16.234375 22.769531 16.207031 C 22.847656 16.152344 22.910156 16.082031 22.960938 16.003906 C 23.019531 15.914062 23.140625 15.816406 23.089844 15.714844 C 23.050781 15.636719 22.90625 15.695312 22.808594 15.683594 L 22.785156 15.683594 C 22.65625 15.671875 22.59375 15.71875 22.605469 15.84375 L 22.605469 15.992188 M 22.308594 16.019531 C 22.308594 15.9375 22.304688 15.875 22.308594 15.8125 C 22.3125 15.71875 22.265625 15.675781 22.171875 15.683594 C 22.050781 15.699219 21.875 15.621094 21.824219 15.726562 C 21.773438 15.824219 21.910156 15.945312 21.976562 16.046875 L 22 16.078125 C 22.089844 16.164062 22.167969 16.285156 22.265625 16.253906 C 22.363281 16.226562 22.285156 16.089844 22.308594 16.019531 M 21.019531 14.445312 C 21.089844 14.402344 21.25 14.523438 21.285156 14.332031 L 21.347656 13.890625 C 21.359375 13.832031 21.351562 13.796875 21.289062 13.777344 C 21.066406 13.710938 20.914062 13.785156 20.835938 14 L 20.78125 14.179688 C 20.71875 14.445312 20.71875 14.445312 21.019531 14.445312 M 23.902344 14.738281 C 23.621094 14.738281 23.621094 14.738281 23.59375 15.019531 L 23.558594 15.277344 C 23.554688 15.324219 23.550781 15.375 23.617188 15.398438 C 23.800781 15.46875 23.996094 15.386719 24.0625 15.199219 L 24.117188 15.023438 C 24.191406 14.746094 24.1875 14.738281 23.902344 14.738281 M 21.054688 14.738281 C 20.714844 14.738281 20.710938 14.742188 20.785156 15.035156 L 20.875 15.28125 C 20.925781 15.390625 21.164062 15.457031 21.300781 15.394531 C 21.421875 15.335938 21.316406 15.242188 21.320312 15.167969 C 21.324219 15.105469 21.289062 15.042969 21.296875 14.984375 C 21.3125 14.777344 21.222656 14.699219 21.054688 14.738281 M 23.898438 14.449219 C 24.175781 14.445312 24.183594 14.433594 24.117188 14.164062 L 24.058594 13.96875 C 23.988281 13.78125 23.851562 13.710938 23.640625 13.777344 C 23.46875 13.832031 23.589844 13.964844 23.589844 14.0625 L 23.597656 14.171875 C 23.617188 14.441406 23.632812 14.453125 23.898438 14.449219 M 22.992188 14.445312 C 23.34375 14.445312 23.34375 14.445312 23.320312 14.175781 C 23.285156 13.773438 23.285156 13.773438 22.882812 13.773438 C 22.605469 13.773438 22.605469 13.773438 22.605469 14.046875 C 22.605469 14.488281 22.570312 14.441406 22.992188 14.445312 M 21.9375 14.445312 L 22.03125 14.445312 C 22.328125 14.441406 22.304688 14.488281 22.308594 14.164062 L 22.308594 14.152344 C 22.300781 13.722656 22.355469 13.777344 21.945312 13.773438 C 21.648438 13.773438 21.648438 13.773438 21.605469 14.054688 C 21.542969 14.445312 21.542969 14.445312 21.9375 14.445312 M 22.308594 15.078125 L 22.308594 14.964844 C 22.332031 14.796875 22.269531 14.714844 22.089844 14.742188 L 21.996094 14.746094 C 21.492188 14.753906 21.539062 14.636719 21.617188 15.230469 C 21.636719 15.371094 21.707031 15.425781 21.84375 15.410156 L 21.976562 15.410156 C 22.347656 15.40625 22.304688 15.441406 22.308594 15.078125 M 22.953125 14.738281 C 22.546875 14.742188 22.582031 14.699219 22.582031 15.007812 C 22.578125 15.402344 22.582031 15.394531 22.992188 15.40625 C 23.1875 15.414062 23.261719 15.351562 23.296875 15.160156 C 23.367188 14.75 23.367188 14.738281 22.953125 14.738281 M 22.441406 16.589844 C 21.316406 16.574219 20.445312 15.679688 20.457031 14.550781 C 20.46875 13.449219 21.382812 12.574219 22.5 12.589844 C 23.59375 12.605469 24.472656 13.527344 24.457031 14.640625 C 24.441406 15.722656 23.53125 16.601562 22.441406 16.589844 " clip-rule="nonzero"/></clipPath><clipPath id="c46e3eb404"><path d="M 18 10.148438 L 26.875 10.148438 L 26.875 14.960938 L 18 14.960938 Z M 18 10.148438 " clip-rule="nonzero"/></clipPath><clipPath id="0bcd15f71d"><path d="M 22.59375 10.148438 C 21.828125 10.152344 21.253906 10.5 20.875 11.179688 C 20.804688 11.300781 20.738281 11.355469 20.597656 11.355469 C 20.589844 11.355469 20.578125 11.351562 20.570312 11.351562 C 20.535156 11.351562 20.5 11.351562 20.464844 11.351562 C 19.796875 11.351562 19.367188 11.667969 19.136719 12.3125 C 19.101562 12.421875 19.039062 12.496094 18.933594 12.542969 C 18.28125 12.820312 17.816406 13.660156 18.390625 14.585938 C 18.457031 14.6875 18.527344 14.742188 18.644531 14.742188 C 18.652344 14.742188 18.65625 14.742188 18.664062 14.742188 C 18.707031 14.742188 18.753906 14.738281 18.800781 14.738281 C 18.890625 14.738281 18.984375 14.742188 19.078125 14.742188 C 19.144531 14.742188 19.214844 14.742188 19.28125 14.734375 C 19.292969 14.734375 19.304688 14.734375 19.316406 14.734375 C 19.429688 14.734375 19.46875 14.785156 19.429688 14.929688 C 19.691406 14.816406 19.933594 14.730469 20.199219 14.582031 C 19.921875 14.464844 19.6875 14.367188 19.40625 14.246094 C 19.496094 14.445312 19.417969 14.460938 19.324219 14.460938 C 19.304688 14.460938 19.289062 14.460938 19.269531 14.460938 C 19.265625 14.460938 19.261719 14.460938 19.253906 14.460938 C 19.226562 14.460938 19.199219 14.460938 19.171875 14.460938 C 19.125 14.460938 19.078125 14.460938 19.027344 14.460938 C 18.964844 14.460938 18.902344 14.460938 18.84375 14.464844 C 18.828125 14.46875 18.820312 14.46875 18.808594 14.46875 C 18.691406 14.46875 18.617188 14.40625 18.558594 14.300781 C 18.222656 13.726562 18.464844 13.007812 19.085938 12.761719 C 19.253906 12.699219 19.347656 12.605469 19.367188 12.429688 C 19.382812 12.296875 19.4375 12.175781 19.515625 12.070312 C 19.746094 11.75 20.035156 11.597656 20.375 11.597656 C 20.484375 11.597656 20.601562 11.613281 20.71875 11.644531 C 20.757812 11.652344 20.789062 11.660156 20.816406 11.660156 C 20.90625 11.660156 20.957031 11.605469 20.996094 11.492188 C 21.070312 11.265625 21.199219 11.0625 21.375 10.894531 C 21.734375 10.546875 22.171875 10.382812 22.597656 10.382812 C 23.273438 10.382812 23.921875 10.789062 24.210938 11.535156 C 24.265625 11.675781 24.320312 11.742188 24.4375 11.742188 C 24.46875 11.742188 24.503906 11.738281 24.546875 11.730469 C 24.640625 11.707031 24.734375 11.699219 24.832031 11.699219 C 25.359375 11.699219 25.902344 11.988281 26.191406 12.433594 C 26.574219 13.015625 26.578125 13.757812 26.210938 14.289062 C 26.132812 14.402344 26.042969 14.445312 25.910156 14.445312 C 25.90625 14.445312 25.902344 14.445312 25.898438 14.445312 L 24.84375 14.445312 C 24.746094 14.445312 24.660156 14.453125 24.664062 14.59375 C 24.664062 14.730469 24.742188 14.738281 24.839844 14.738281 C 24.839844 14.738281 24.84375 14.738281 24.847656 14.738281 C 25.035156 14.738281 25.222656 14.726562 25.410156 14.726562 C 25.53125 14.726562 25.648438 14.730469 25.765625 14.75 C 25.8125 14.753906 25.855469 14.757812 25.894531 14.757812 C 26.214844 14.757812 26.390625 14.574219 26.53125 14.285156 C 26.855469 13.609375 26.84375 12.949219 26.4375 12.320312 C 26.0625 11.738281 25.503906 11.445312 24.824219 11.445312 C 24.800781 11.445312 24.777344 11.445312 24.753906 11.445312 C 24.742188 11.445312 24.734375 11.445312 24.722656 11.445312 C 24.539062 11.445312 24.457031 11.394531 24.375 11.230469 C 24.023438 10.554688 23.46875 10.175781 22.695312 10.148438 C 22.671875 10.148438 22.644531 10.148438 22.617188 10.148438 Z M 22.59375 10.148438 " clip-rule="nonzero"/></clipPath><clipPath id="94b6529092"><path d="M 33.648438 16.640625 L 47.507812 16.640625 L 47.507812 32.691406 L 33.648438 32.691406 Z M 33.648438 16.640625 " clip-rule="nonzero"/></clipPath><clipPath id="4f9ee71135"><path d="M 33.949219 16.640625 C 33.6875 16.640625 33.683594 16.644531 33.683594 16.898438 L 33.683594 19.207031 C 33.683594 19.507812 33.683594 19.507812 33.980469 19.507812 C 34.277344 19.507812 34.578125 19.507812 34.875 19.507812 C 36.074219 19.507812 37.269531 19.507812 38.46875 19.507812 L 38.617188 19.511719 C 38.617188 19.511719 38.621094 19.511719 38.621094 19.511719 C 38.722656 19.511719 38.765625 19.5625 38.765625 19.660156 L 38.765625 19.867188 C 38.765625 23.953125 38.765625 28.039062 38.765625 32.121094 L 38.765625 32.5 C 38.761719 32.617188 38.808594 32.65625 38.929688 32.65625 C 38.929688 32.65625 38.933594 32.65625 38.933594 32.65625 L 41.882812 32.652344 C 42.1875 32.652344 42.1875 32.652344 42.1875 32.339844 L 42.1875 19.824219 C 42.1875 19.507812 42.1875 19.507812 42.492188 19.507812 L 47.261719 19.511719 C 47.261719 19.511719 47.265625 19.511719 47.265625 19.511719 C 47.445312 19.511719 47.507812 19.460938 47.507812 19.285156 L 47.507812 19.273438 C 47.507812 19.269531 47.507812 19.269531 47.507812 19.269531 L 47.503906 16.921875 C 47.503906 16.644531 47.503906 16.644531 47.226562 16.644531 L 40.597656 16.644531 Z M 33.949219 16.640625 " clip-rule="nonzero"/></clipPath><clipPath id="8a07d7f77b"><path d="M 31.84375 22.316406 L 36.691406 22.316406 L 36.691406 32.691406 L 31.84375 32.691406 Z M 31.84375 22.316406 " clip-rule="nonzero"/></clipPath><clipPath id="1d50f15e88"><path d="M 36.667969 27.515625 L 36.671875 30.421875 C 36.671875 30.558594 36.632812 30.65625 36.535156 30.753906 L 34.691406 32.570312 C 34.609375 32.652344 34.523438 32.6875 34.410156 32.6875 L 32.097656 32.6875 C 31.9375 32.691406 31.878906 32.644531 31.882812 32.476562 L 31.882812 30.75 C 31.882812 30.597656 31.933594 30.535156 32.089844 30.539062 C 32.382812 30.546875 32.675781 30.535156 32.972656 30.546875 C 33.152344 30.554688 33.207031 30.492188 33.207031 30.3125 L 33.203125 25.996094 C 33.203125 25.550781 33.199219 25.105469 33.207031 24.664062 C 33.207031 24.511719 33.160156 24.449219 33.003906 24.453125 L 32.0625 24.457031 C 31.9375 24.460938 31.882812 24.417969 31.882812 24.285156 L 31.882812 22.5 C 31.882812 22.375 31.933594 22.324219 32.058594 22.324219 L 34.464844 22.324219 C 34.550781 22.324219 34.617188 22.363281 34.675781 22.421875 L 36.570312 24.296875 C 36.660156 24.382812 36.667969 24.476562 36.667969 24.585938 L 36.667969 27.515625 " clip-rule="nonzero"/></clipPath></defs><g clip-path="url(#b289f311a9)"><g clip-path="url(#d35324bb47)"><path fill="#750f6d" d="M 0.300781 9.960938 L 31.574219 9.960938 L 31.574219 32.886719 L 0.300781 32.886719 Z M 0.300781 9.960938 " fill-opacity="1" fill-rule="nonzero"/></g></g><g clip-path="url(#2708c7647d)"><g clip-path="url(#a342a46a1e)"><path fill="#dda300" d="M 0.300781 9.960938 L 31.574219 9.960938 L 31.574219 32.886719 L 0.300781 32.886719 Z M 0.300781 9.960938 " fill-opacity="1" fill-rule="nonzero"/></g></g><g clip-path="url(#0c3be38426)"><g clip-path="url(#ad939f78b2)"><path fill="#750f6d" d="M 0.300781 9.960938 L 31.574219 9.960938 L 31.574219 32.886719 L 0.300781 32.886719 Z M 0.300781 9.960938 " fill-opacity="1" fill-rule="nonzero"/></g></g><g clip-path="url(#6e31105a95)"><g clip-path="url(#cb12d89c0c)"><path fill="#750f6d" d="M 0.300781 9.960938 L 31.574219 9.960938 L 31.574219 32.886719 L 0.300781 32.886719 Z M 0.300781 9.960938 " fill-opacity="1" fill-rule="nonzero"/></g></g><g clip-path="url(#19db41fde7)"><g clip-path="url(#f8bbbe324b)"><path fill="#dda300" d="M 0.300781 9.960938 L 31.574219 9.960938 L 31.574219 32.886719 L 0.300781 32.886719 Z M 0.300781 9.960938 " fill-opacity="1" fill-rule="nonzero"/></g></g><g clip-path="url(#71543fd371)"><g clip-path="url(#b4f83996b1)"><path fill="#750f6d" d="M 0.300781 9.960938 L 31.574219 9.960938 L 31.574219 32.886719 L 0.300781 32.886719 Z M 0.300781 9.960938 " fill-opacity="1" fill-rule="nonzero"/></g></g><g clip-path="url(#c46e3eb404)"><g clip-path="url(#0bcd15f71d)"><path fill="#750f6d" d="M 0.300781 9.960938 L 31.574219 9.960938 L 31.574219 32.886719 L 0.300781 32.886719 Z M 0.300781 9.960938 " fill-opacity="1" fill-rule="nonzero"/></g></g><g clip-path="url(#94b6529092)"><g clip-path="url(#4f9ee71135)"><path fill="#dda300" d="M 31.695312 16.453125 L 47.707031 16.453125 L 47.707031 32.878906 L 31.695312 32.878906 Z M 31.695312 16.453125 " fill-opacity="1" fill-rule="nonzero"/></g></g><g clip-path="url(#8a07d7f77b)"><g clip-path="url(#1d50f15e88)"><path fill="#750f6d" d="M 31.695312 16.453125 L 47.707031 16.453125 L 47.707031 32.878906 L 31.695312 32.878906 Z M 31.695312 16.453125 " fill-opacity="1" fill-rule="nonzero"/></g></g></svg>